<svg xmlns="http://www.w3.org/2000/svg" width="512" height="512" viewBox="0 0 512 512">
  <rect width="512" height="512" fill="#0d9488"/>
  <g transform="translate(96,96) scale(13.3)" fill="none" stroke="#fb923c" stroke-width="2" stroke-linecap="round" stroke-linejoin="round"><path d="M3 12a9 9 0 0 1 9-9 9.75 9.75 0 0 1 6.74 2.74L21 8"/><path d="M21 3v5h-5"/><path d="M21 12a9 9 0 0 1-9 9 9.75 9.75 0 0 1-6.74-2.74L3 16"/><path d="M3 21v-5h5"/><path d="M8.5 12.2l2.4 2.4 4.6-5.4" stroke-width="2.4"/></g>
  <g transform="rotate(-8 256 300)"><text x="256" y="316" font-family="Pacifico, 'Snell Roundhand', 'Brush Script MT', cursive" font-size="112" fill="#fb923c" stroke="#134e4a" stroke-width="7" paint-order="stroke" text-anchor="middle">base</text></g>
</svg>
