<svg xmlns="http://www.w3.org/2000/svg" width="512" height="512" viewBox="0 0 512 512">
  <defs><linearGradient id="g" x1="0" y1="0" x2="1" y2="1"><stop offset="0" stop-color="#FF9A3D"/><stop offset="1" stop-color="#E8590C"/></linearGradient></defs>
  <rect width="512" height="512" fill="#FFC93C"/>
  <g transform="translate(96,96) scale(13.3)" fill="none" stroke="url(#g)" stroke-width="2" stroke-linecap="round" stroke-linejoin="round"><path d="M3 12a9 9 0 0 1 9-9 9.75 9.75 0 0 1 6.74 2.74L21 8"/><path d="M21 3v5h-5"/><path d="M21 12a9 9 0 0 1-9 9 9.75 9.75 0 0 1-6.74-2.74L3 16"/><path d="M3 21v-5h5"/><path d="M8.5 12.2l2.4 2.4 4.6-5.4" stroke-width="2.4"/></g>
  <g transform="rotate(-8 256 292)"><text x="256" y="308" font-family="Pacifico, 'Snell Roundhand', 'Brush Script MT', cursive" font-size="112" fill="#fffdf9" stroke="#9a3412" stroke-width="7" paint-order="stroke" text-anchor="middle">pitch</text></g>
</svg>
