<svg xmlns="http://www.w3.org/2000/svg" viewBox="0 0 48 48" width="48" height="48">
  <defs>
    <linearGradient id="g" x1="8" y1="8" x2="40" y2="40" gradientUnits="userSpaceOnUse">
      <stop offset="0" stop-color="#E0864F"/>
      <stop offset="1" stop-color="#9A3412"/>
    </linearGradient>
  </defs>
  <rect width="48" height="48" rx="11" fill="#ffffff"/>
  <g fill="none" stroke="url(#g)" stroke-width="3.2" stroke-linecap="round" stroke-linejoin="round" transform="translate(6 6) scale(1.5)">
    <path d="M3 12a9 9 0 0 1 9-9 9.75 9.75 0 0 1 6.74 2.74L21 8"/>
    <path d="M21 3v5h-5"/>
    <path d="M21 12a9 9 0 0 1-9 9 9.75 9.75 0 0 1-6.74-2.74L3 16"/>
    <path d="M3 21v-5h5"/>
    <path d="M8.5 12.2l2.4 2.4 4.6-5.4" stroke-width="3.6"/>
  </g>
</svg>
